<?xml version="1.0" standalone="no"?>
<!DOCTYPE svg PUBLIC "-//W3C//DTD SVG 20010904//EN"
 "http://www.w3.org/TR/2001/REC-SVG-20010904/DTD/svg10.dtd">
<svg version="1.0" xmlns="http://www.w3.org/2000/svg"
 width="1080.000000pt" height="1080.000000pt" viewBox="0 0 1080.000000 1080.000000"
 preserveAspectRatio="xMidYMid meet">

<g transform="translate(0.000000,1080.000000) scale(0.100000,-0.100000)"
fill="#000000" stroke="none">
<path d="M8280 10650 c-102 -21 -264 -133 -296 -204 -8 -17 -18 -38 -24 -46
-16 -27 -77 -164 -91 -205 -7 -22 -18 -44 -24 -50 -7 -5 -22 -39 -34 -75 -12
-36 -33 -84 -47 -107 -13 -23 -24 -49 -24 -58 0 -17 -24 -65 -46 -95 -6 -8
-14 -30 -18 -49 -3 -19 -12 -42 -20 -50 -7 -9 -26 -50 -41 -91 -15 -41 -35
-88 -45 -105 -9 -16 -23 -50 -30 -75 -8 -25 -20 -52 -27 -61 -7 -8 -13 -21
-13 -27 0 -6 -7 -28 -17 -49 -26 -61 -56 -127 -65 -145 -4 -10 -8 -25 -8 -33
0 -9 -13 -42 -30 -75 -16 -33 -30 -64 -30 -70 0 -6 -13 -38 -30 -72 -16 -33
-30 -65 -30 -72 0 -6 -7 -24 -16 -41 -19 -35 -64 -150 -71 -182 -3 -12 -11
-28 -19 -34 -8 -6 -14 -19 -14 -29 0 -19 -22 -79 -44 -120 -7 -14 -21 -52 -31
-85 -10 -33 -24 -67 -30 -75 -7 -8 -20 -40 -29 -70 -10 -30 -28 -80 -40 -110
-31 -72 -90 -231 -111 -300 -10 -30 -21 -59 -25 -65 -4 -5 -13 -28 -20 -50 -7
-22 -16 -44 -21 -49 -5 -6 -9 -19 -9 -30 0 -11 -6 -27 -13 -35 -8 -9 -22 -46
-32 -84 -9 -37 -21 -69 -25 -72 -11 -7 -50 -128 -50 -155 0 -11 -7 -23 -15
-26 -8 -4 -15 -14 -15 -25 0 -10 -16 -62 -36 -116 -20 -54 -45 -127 -56 -163
-10 -36 -25 -78 -33 -95 -7 -16 -23 -61 -35 -100 -12 -38 -28 -82 -36 -97 -8
-14 -14 -33 -14 -41 0 -21 -29 -116 -46 -152 -19 -39 -104 -303 -104 -321 0
-8 -7 -25 -15 -37 -21 -32 -45 -115 -45 -156 0 -25 -12 -49 -49 -95 -27 -33
-61 -72 -75 -85 l-25 -24 -113 12 c-62 6 -147 16 -188 21 -41 5 -125 9 -187
10 -61 0 -114 4 -117 8 -2 4 23 30 57 57 96 77 329 318 376 389 9 13 44 63 79
110 34 47 62 90 62 96 0 5 6 13 14 17 7 4 33 44 58 88 66 118 79 145 97 205
14 46 24 60 62 85 25 17 53 37 62 45 144 135 192 215 191 315 0 66 -24 123
-68 164 l-25 24 19 25 c11 13 29 57 41 96 19 63 20 77 9 121 -24 101 -63 149
-151 185 -23 10 -64 46 -111 100 -96 110 -204 181 -411 270 l-47 20 23 43 c35
62 56 131 63 206 5 51 15 81 45 132 l39 67 254 148 c140 81 254 150 252 153
-126 221 -342 589 -351 599 -9 11 -62 -16 -274 -139 -190 -110 -265 -148 -274
-141 -22 19 -121 51 -187 61 -52 9 -68 16 -87 39 -48 62 -115 85 -298 104
l-100 11 -53 53 c-30 30 -60 54 -67 54 -8 0 -26 10 -42 23 -25 20 -60 41 -165
94 -15 8 -53 19 -85 25 -32 6 -75 17 -96 26 -58 24 -414 24 -477 0 -25 -9 -76
-26 -115 -37 -83 -22 -281 -118 -354 -170 -89 -64 -281 -171 -306 -171 -8 0
-15 -4 -15 -9 0 -6 -49 -35 -110 -65 -60 -30 -144 -76 -187 -101 -43 -26 -94
-56 -113 -67 -70 -42 -209 -139 -279 -195 -58 -46 -241 -227 -241 -238 0 -4
-9 -17 -20 -29 -65 -67 -110 -143 -110 -186 0 -9 -6 -30 -14 -46 -8 -16 -22
-76 -32 -134 -9 -58 -21 -110 -25 -116 -25 -32 -74 -485 -73 -674 0 -93 8
-125 65 -275 49 -128 55 -166 36 -246 -18 -74 -25 -136 -32 -304 -3 -66 -8
-138 -11 -160 -4 -35 8 -134 46 -360 6 -33 17 -73 24 -90 8 -16 22 -64 31
-105 10 -41 23 -79 29 -85 6 -5 19 -35 30 -65 10 -30 24 -59 30 -65 7 -5 20
-28 30 -50 10 -22 27 -51 37 -65 9 -14 32 -53 50 -85 18 -33 46 -80 63 -104
17 -24 38 -54 46 -66 14 -22 119 -154 177 -224 15 -18 72 -78 125 -132 53 -54
101 -105 105 -112 4 -7 20 -20 36 -30 15 -10 27 -23 27 -30 0 -7 16 -29 36
-48 20 -18 54 -56 75 -84 22 -27 57 -72 79 -98 22 -27 40 -54 40 -61 0 -6 -23
-39 -51 -71 -28 -33 -62 -76 -75 -95 -13 -19 -37 -53 -54 -75 -16 -22 -42 -64
-56 -93 -14 -28 -29 -52 -33 -52 -4 0 -15 -19 -25 -42 -10 -24 -31 -71 -47
-104 -16 -34 -29 -67 -29 -74 0 -7 -6 -24 -14 -38 -53 -97 -112 -275 -131
-397 -4 -22 -14 -58 -23 -80 -13 -33 -16 -90 -18 -328 l-2 -288 -70 -92 c-84
-112 -153 -250 -192 -387 -12 -41 -28 -97 -36 -125 -30 -105 -13 -299 36 -394
37 -73 132 -171 165 -171 8 0 17 -5 20 -10 7 -11 147 -12 185 -1 14 5 41 2 64
-6 21 -7 62 -13 90 -13 55 0 84 14 124 62 22 26 26 27 116 25 92 -2 95 -1 142
32 44 31 54 34 115 32 49 -1 69 2 79 14 7 8 17 15 23 15 31 0 87 55 108 107
20 49 21 60 10 105 -11 49 -87 184 -117 208 -21 19 -17 44 16 93 33 49 40 113
18 164 -11 24 -53 83 -76 105 -15 14 -99 85 -142 120 -94 75 -100 83 -100 136
0 30 12 81 31 133 17 46 34 93 37 104 3 11 14 34 24 50 10 17 29 53 43 80 14
28 44 84 66 125 22 41 47 99 55 129 8 29 28 71 44 91 17 21 30 41 30 44 0 4
10 28 21 54 12 26 30 65 40 87 26 57 64 99 83 92 8 -3 27 -24 42 -47 24 -36
26 -43 14 -65 -7 -14 -21 -33 -29 -42 -9 -10 -28 -38 -42 -63 -82 -144 -119
-232 -119 -283 1 -48 32 -87 116 -147 27 -19 76 -56 108 -82 33 -27 66 -48 73
-48 7 0 13 -4 13 -9 0 -5 21 -20 48 -34 l47 -25 3 -58 c2 -32 -4 -90 -12 -129
-8 -38 -17 -103 -20 -143 -11 -135 -35 -161 -171 -185 -33 -6 -67 -16 -75 -22
-8 -7 -30 -20 -48 -29 -21 -11 -39 -31 -48 -52 -14 -33 -13 -40 6 -92 20 -53
68 -140 114 -207 25 -36 23 -63 -8 -129 -13 -28 -34 -73 -46 -101 -86 -193
-132 -269 -235 -392 -50 -59 -80 -105 -112 -174 -1 -4 7 -18 18 -33 35 -45 94
-30 209 54 30 22 78 56 105 74 28 19 57 41 64 50 7 9 18 16 23 16 14 0 87 60
201 165 114 105 221 201 233 208 19 11 19 -26 0 -61 -8 -15 -23 -58 -33 -95
-17 -63 -22 -71 -75 -112 -95 -76 -168 -190 -193 -305 -9 -41 -21 -91 -26
-111 -25 -100 -2 -325 44 -418 76 -155 450 -420 711 -505 27 -9 58 -16 68 -16
10 0 29 -6 41 -14 25 -16 135 -32 277 -42 186 -12 381 33 485 112 93 71 138
246 104 406 -15 71 -78 199 -133 273 -25 33 -56 76 -70 96 -13 20 -44 51 -68
69 -24 19 -48 39 -53 46 -42 49 -370 234 -416 234 -32 0 -34 56 -4 105 7 11
20 49 30 85 9 36 23 72 30 80 6 8 18 35 24 60 36 135 65 213 118 315 101 196
214 333 329 400 27 15 57 35 67 44 25 21 81 55 142 86 28 14 57 29 65 35 19
12 234 89 280 100 105 24 97 25 105 -11 6 -24 41 -68 130 -159 177 -180 185
-190 206 -270 10 -38 24 -79 32 -92 17 -26 33 -150 47 -348 l9 -135 -50 -45
c-27 -25 -49 -50 -49 -56 0 -5 -11 -26 -25 -45 -45 -60 -69 -160 -70 -284 0
-121 14 -184 66 -290 16 -33 29 -64 29 -68 0 -11 81 -134 117 -176 46 -56 153
-155 181 -170 15 -8 30 -18 34 -24 19 -30 245 -144 363 -184 263 -89 473 -96
675 -25 56 20 86 39 123 75 46 46 97 137 97 176 0 10 7 25 16 32 14 11 16 28
11 100 -3 48 -10 95 -15 105 -5 11 -17 51 -26 89 -27 111 -118 259 -221 359
-103 100 -324 215 -413 216 -28 0 -45 40 -38 90 4 19 2 73 -4 120 -35 303 -35
297 -5 436 16 71 30 145 33 164 3 19 12 46 21 60 14 21 16 61 16 280 0 193 -4
261 -14 279 -7 13 -22 60 -32 105 -11 44 -26 99 -33 121 -7 22 -21 65 -31 95
-10 30 -24 60 -31 66 -8 6 -21 28 -30 49 l-16 39 44 41 c42 39 116 122 158
178 26 33 62 36 78 5 29 -59 44 -109 54 -183 21 -147 13 -275 -24 -375 -29
-79 -29 -160 1 -200 20 -28 23 -45 26 -138 4 -124 25 -212 61 -256 31 -37 99
-75 135 -76 14 0 36 -11 50 -26 29 -32 94 -63 132 -64 32 0 108 32 126 54 11
13 17 13 46 0 61 -25 92 -18 167 37 72 54 107 101 135 185 8 27 22 56 29 65
17 19 34 132 34 231 0 78 -22 221 -38 242 -5 6 -15 38 -22 71 -14 68 -50 181
-75 240 -26 59 -134 254 -168 300 -16 22 -35 55 -42 73 -8 17 -18 32 -23 32
-5 0 -13 10 -19 23 -32 69 -190 258 -311 371 l-42 39 0 81 c0 75 -7 133 -31
276 -27 164 -22 253 17 300 7 8 20 35 29 60 10 25 37 86 60 135 159 332 189
396 207 445 11 30 26 62 33 70 7 8 20 40 31 70 10 30 24 62 30 70 7 8 21 41
31 72 11 31 24 63 30 70 6 7 13 26 17 42 4 15 15 47 25 70 23 53 54 130 76
186 9 25 23 57 31 72 8 14 14 32 14 40 0 7 7 27 16 43 15 29 54 136 109 300
15 44 31 88 36 97 5 10 19 48 30 85 11 38 29 86 39 108 10 22 21 54 24 70 9
39 84 280 102 325 8 19 23 72 34 118 11 45 25 94 31 110 6 15 23 77 39 137 15
61 33 121 38 135 5 14 17 61 27 105 9 44 23 94 31 112 8 17 18 57 23 90 14 85
29 151 40 171 5 9 16 58 26 107 9 50 28 142 42 205 14 63 30 141 34 173 5 32
13 66 18 75 5 9 12 46 16 82 4 36 11 70 15 75 4 6 10 39 13 75 3 36 13 92 21
125 14 54 26 134 57 370 5 44 17 109 25 145 15 72 34 244 41 391 6 111 -8 163
-63 247 -37 57 -147 169 -179 183 -25 11 -55 30 -72 46 -7 6 -50 26 -95 43
-74 30 -95 33 -203 36 -66 2 -140 -1 -165 -6z m271 -113 c31 -7 62 -17 70 -23
8 -6 39 -23 70 -37 87 -42 201 -157 240 -242 26 -57 30 -78 26 -120 -9 -98
-79 -586 -97 -675 -5 -25 -11 -75 -15 -113 -3 -37 -10 -78 -15 -92 -10 -27
-16 -59 -54 -295 -13 -80 -28 -156 -34 -170 -5 -14 -13 -50 -17 -80 -10 -77
-31 -176 -41 -191 -7 -12 -22 -84 -42 -211 -5 -25 -13 -52 -19 -60 -5 -7 -18
-56 -28 -108 -9 -52 -21 -104 -26 -115 -5 -11 -19 -63 -33 -115 -13 -52 -36
-138 -51 -190 -66 -230 -94 -328 -105 -375 -7 -27 -18 -59 -24 -70 -6 -11 -16
-40 -23 -65 -25 -98 -75 -249 -100 -305 -7 -16 -22 -64 -34 -105 -12 -41 -25
-79 -29 -85 -3 -5 -15 -37 -25 -70 -10 -33 -28 -83 -41 -110 -12 -28 -26 -64
-30 -80 -3 -17 -18 -54 -31 -84 -13 -30 -34 -84 -45 -120 -12 -36 -26 -73 -33
-81 -6 -8 -19 -40 -29 -70 -10 -30 -26 -71 -36 -90 -10 -19 -21 -46 -25 -60
-4 -14 -23 -57 -41 -97 -19 -39 -34 -76 -34 -82 0 -6 -13 -37 -30 -68 -16 -31
-30 -60 -30 -66 0 -6 -27 -66 -61 -134 -33 -68 -67 -142 -75 -165 -8 -23 -21
-49 -28 -58 -8 -8 -17 -26 -21 -39 -11 -35 -31 -77 -70 -146 -18 -33 -45 -85
-59 -115 -14 -30 -30 -62 -35 -70 -6 -8 -34 -60 -63 -115 -28 -55 -73 -140
-99 -190 -86 -163 -91 -173 -87 -200 2 -16 14 -33 31 -43 29 -17 29 -17 66 24
20 23 54 75 75 115 41 80 62 107 72 96 14 -14 23 -106 23 -242 1 -130 -1 -147
-29 -229 -17 -49 -30 -93 -30 -98 0 -10 -34 -91 -50 -120 -6 -10 -10 -24 -10
-32 0 -8 -7 -21 -15 -29 -8 -8 -26 -37 -40 -64 -33 -61 -231 -288 -293 -336
-26 -19 -69 -56 -95 -81 -27 -25 -52 -46 -57 -48 -5 -2 -12 -15 -15 -30 -7
-27 -6 -28 34 -28 22 0 56 7 75 16 19 9 40 14 48 12 19 -8 84 -171 104 -263 9
-44 23 -89 29 -100 18 -28 35 -204 35 -348 0 -121 -17 -255 -37 -292 -6 -11
-19 -58 -29 -105 -15 -69 -18 -123 -17 -290 1 -113 6 -227 10 -255 12 -65 2
-173 -17 -186 -16 -11 -160 -5 -250 10 -90 15 -211 66 -242 103 -16 18 -28 39
-28 46 0 8 -8 29 -19 46 -19 31 -21 52 -41 315 -6 74 -14 139 -19 145 -5 6
-19 52 -31 101 -13 50 -29 97 -36 106 -8 8 -14 21 -14 27 0 19 -49 92 -65 99
-8 3 -15 11 -15 17 0 7 -56 67 -125 134 -113 111 -144 152 -115 152 6 0 34 12
63 26 28 14 72 32 97 41 65 22 133 70 228 159 85 80 112 119 112 161 0 21 -4
23 -22 18 -45 -14 -162 -96 -238 -167 -14 -13 -36 -28 -50 -34 -14 -6 -45 -20
-70 -31 -95 -43 -118 -53 -131 -53 -7 0 -20 -6 -28 -13 -9 -7 -50 -21 -91 -31
-95 -23 -168 -46 -200 -63 -14 -7 -31 -13 -38 -13 -8 0 -43 -13 -79 -30 -35
-16 -68 -30 -72 -30 -4 0 -28 -11 -52 -25 -24 -13 -53 -29 -64 -34 -11 -5 -44
-25 -73 -44 -28 -20 -61 -39 -72 -42 -11 -3 -20 -10 -20 -15 0 -4 -19 -19 -42
-33 -67 -39 -163 -132 -208 -200 -22 -34 -46 -69 -53 -77 -8 -8 -22 -36 -33
-62 -10 -27 -22 -48 -26 -48 -10 0 -82 -156 -97 -210 -7 -25 -21 -67 -31 -95
-84 -236 -102 -293 -116 -354 -20 -89 -36 -97 -150 -81 -43 6 -83 15 -88 20
-6 6 -20 10 -32 10 -12 0 -24 7 -27 15 -4 8 -22 21 -42 29 -58 24 -125 86
-125 116 0 54 53 208 77 223 7 4 13 17 13 28 0 11 13 45 29 77 16 31 36 84 46
117 9 33 22 71 27 85 17 42 48 179 48 211 0 17 5 40 12 52 21 40 54 331 108
946 6 68 13 128 17 133 3 6 9 108 14 227 11 302 24 415 55 492 14 35 30 79 36
97 5 18 22 54 38 79 16 25 34 61 41 80 6 18 15 33 20 33 5 0 18 18 29 40 12
23 27 43 35 47 8 3 15 11 15 17 0 13 262 267 303 295 12 8 47 35 77 61 30 25
92 70 138 100 45 30 82 57 82 61 0 4 25 22 55 39 30 17 55 35 55 40 0 4 13 13
29 20 16 6 41 25 57 41 15 16 32 29 36 29 5 0 74 53 154 118 149 120 180 143
249 188 22 14 90 77 150 140 l111 113 49 148 c27 81 57 166 67 189 10 22 18
47 18 55 0 15 19 68 38 109 7 14 21 57 31 95 20 75 76 240 89 265 5 8 23 62
41 120 18 58 37 113 42 124 10 18 42 107 95 266 14 41 29 79 33 85 5 5 16 37
25 70 10 33 26 78 36 100 11 22 24 58 30 80 15 53 52 148 62 159 4 6 8 18 8
28 0 9 10 39 21 65 29 64 35 79 55 143 9 30 23 66 30 80 7 14 22 52 34 85 11
33 25 69 29 80 5 11 17 45 27 75 10 30 23 62 30 70 6 8 20 44 32 80 17 56 70
191 116 294 31 70 84 203 91 226 4 14 15 43 25 65 46 99 110 259 110 273 0 8
6 23 13 31 8 9 22 39 31 66 10 28 31 78 47 113 16 34 29 65 29 68 0 4 13 34
29 68 73 157 84 183 103 240 11 34 26 68 32 76 7 8 22 40 32 70 10 30 24 60
30 65 6 6 19 33 29 60 10 28 26 64 36 81 11 17 19 37 19 43 0 7 20 55 45 107
25 51 45 98 45 103 0 11 81 86 111 101 13 7 28 19 32 26 4 8 22 14 40 15 18 0
41 4 52 9 29 13 171 11 236 -3z m-4241 -901 c139 -15 237 -46 315 -100 17 -12
48 -30 70 -41 38 -19 64 -42 65 -57 0 -3 -13 -9 -30 -13 -16 -4 -32 -11 -35
-15 -3 -5 -25 -18 -49 -29 -26 -11 -87 -61 -150 -122 -115 -112 -173 -183
-195 -239 -8 -19 -18 -40 -23 -46 -4 -6 -17 -37 -28 -69 -29 -84 -26 -165 6
-165 13 0 54 49 67 80 4 8 11 22 17 30 5 8 19 35 31 60 35 75 56 111 91 153
38 47 156 162 190 185 13 9 29 22 37 30 18 18 52 31 126 49 97 25 172 26 255
5 l74 -18 -64 -32 c-106 -51 -317 -200 -387 -272 -14 -13 -35 -32 -49 -40 -13
-9 -45 -43 -72 -77 -27 -33 -55 -67 -61 -74 -6 -8 -32 -41 -56 -74 -25 -33
-51 -67 -58 -75 -8 -8 -22 -28 -33 -45 -10 -16 -23 -33 -29 -37 -5 -4 -50 -8
-100 -8 -95 0 -263 -26 -382 -60 -90 -25 -203 -79 -308 -148 -93 -60 -115 -76
-115 -82 0 -4 -16 -15 -35 -26 -19 -10 -35 -22 -35 -25 0 -4 -22 -21 -50 -38
-58 -36 -59 -37 -167 -138 -46 -43 -83 -82 -83 -86 0 -5 -11 -23 -24 -40 -13
-18 -34 -52 -46 -77 -12 -25 -29 -52 -37 -60 -8 -8 -35 -46 -61 -84 -47 -68
-48 -69 -267 -197 -121 -71 -224 -130 -228 -131 -11 -4 348 -624 359 -621 5 1
216 122 469 269 253 147 479 274 502 283 23 9 45 20 49 24 4 4 13 7 20 7 7 0
56 20 108 45 53 25 101 45 106 45 6 0 10 4 10 10 0 5 15 16 33 24 27 11 102
64 227 157 115 87 672 413 735 431 37 11 241 131 312 184 17 13 36 24 42 24 5
0 16 6 23 13 16 16 279 174 304 183 11 4 -1 -11 -26 -32 -25 -21 -57 -50 -71
-64 -14 -14 -37 -30 -50 -36 -22 -10 -93 -64 -129 -98 -8 -8 -42 -35 -75 -60
-33 -25 -71 -55 -85 -66 -14 -11 -45 -29 -70 -41 -108 -50 -145 -96 -105 -129
37 -31 193 36 313 135 40 33 94 77 120 97 26 20 56 45 67 55 11 10 32 25 47
33 14 8 43 30 63 47 21 18 42 30 47 27 9 -5 -37 -100 -58 -119 -6 -5 -19 -29
-28 -53 -15 -40 -15 -43 3 -61 10 -10 51 -25 90 -34 91 -21 197 -67 283 -123
72 -47 188 -159 188 -182 0 -21 -154 -202 -281 -332 -108 -110 -241 -219 -266
-220 -6 0 -18 -8 -25 -17 -7 -10 -31 -27 -53 -38 -22 -10 -47 -25 -55 -33 -19
-17 -80 -54 -140 -84 -25 -13 -60 -33 -77 -46 -18 -13 -77 -43 -130 -68 -54
-25 -115 -54 -135 -64 -20 -11 -46 -20 -57 -20 -11 0 -22 -4 -25 -9 -4 -5 -24
-12 -45 -16 -22 -4 -45 -13 -52 -21 -6 -8 -18 -14 -27 -14 -23 0 -80 -21 -141
-52 -29 -16 -58 -28 -65 -28 -6 0 -24 -7 -41 -16 -16 -9 -68 -29 -114 -45 -46
-16 -96 -37 -110 -46 -95 -63 -156 -90 -227 -102 -33 -5 -94 -21 -138 -35 -43
-14 -85 -26 -93 -26 -9 0 -32 -9 -52 -19 -20 -11 -79 -40 -132 -66 -110 -52
-193 -121 -254 -211 l-40 -58 1 -110 c0 -97 3 -116 23 -151 34 -59 51 -75 99
-96 84 -36 321 -19 422 30 51 25 189 106 242 143 15 10 32 18 38 18 6 0 18 4
28 9 34 16 107 49 132 58 14 6 72 34 130 63 112 56 257 110 299 110 40 0 169
34 236 62 33 14 85 33 115 43 30 10 62 24 71 31 8 8 20 14 26 14 15 0 101 39
105 48 2 4 23 17 48 30 25 13 72 39 105 57 33 18 79 42 103 54 24 11 63 34 88
51 25 16 48 30 52 30 4 0 27 14 52 30 25 16 61 35 80 41 19 6 43 19 53 27 16
14 81 41 100 42 13 0 -5 -54 -24 -73 -11 -10 -19 -24 -19 -31 0 -7 -12 -29
-27 -49 -16 -19 -46 -65 -68 -102 -22 -37 -47 -74 -56 -83 -9 -10 -41 -48 -70
-87 -73 -97 -96 -122 -238 -263 -144 -144 -287 -246 -501 -360 -128 -68 -224
-141 -235 -179 -6 -21 -3 -23 31 -23 43 0 113 18 134 36 8 6 40 24 70 38 30
15 80 42 110 61 93 58 83 57 382 51 272 -5 351 -14 361 -39 2 -7 -16 -28 -42
-47 -25 -19 -90 -71 -144 -115 -54 -44 -115 -91 -135 -105 -45 -30 -123 -89
-137 -104 -5 -6 -30 -25 -54 -41 -24 -17 -58 -40 -75 -53 -32 -22 -98 -68
-127 -87 -61 -39 -88 -59 -163 -121 -137 -111 -351 -324 -401 -398 -25 -37
-45 -69 -45 -71 0 -2 -11 -20 -24 -39 -12 -19 -33 -61 -46 -93 -13 -32 -28
-65 -35 -73 -6 -8 -20 -44 -29 -80 -10 -36 -24 -76 -31 -90 -15 -29 -32 -126
-45 -250 -5 -47 -14 -104 -20 -127 -13 -56 -29 -314 -36 -578 -4 -148 -11
-239 -25 -308 -10 -54 -19 -120 -19 -145 0 -87 -54 -445 -75 -494 -7 -18 -22
-38 -32 -44 -11 -7 -40 -43 -66 -81 -90 -133 -551 -563 -604 -563 -17 0 -17
24 1 39 7 6 27 41 45 78 18 38 36 75 41 83 16 27 40 83 40 93 0 6 6 18 13 26
8 9 22 39 32 66 10 28 26 61 37 74 10 13 18 30 18 37 0 8 4 22 9 32 39 79 71
148 71 155 0 5 6 23 14 40 27 61 45 133 66 266 12 74 23 137 25 141 12 19 46
324 42 379 -8 118 -28 265 -41 301 -8 19 -23 81 -35 137 -12 57 -33 129 -47
160 -43 98 -116 237 -130 249 -8 6 -14 18 -14 27 0 8 -4 17 -8 19 -5 1 -23 29
-41 60 -17 31 -41 60 -52 63 -24 8 -79 -3 -79 -16 0 -11 -27 -51 -90 -131 -56
-70 -90 -125 -90 -143 0 -8 -5 -17 -11 -20 -9 -6 -44 -76 -90 -183 -11 -24
-19 -52 -19 -62 0 -10 -6 -20 -13 -23 -7 -3 -21 -33 -31 -68 -9 -35 -39 -109
-66 -164 -57 -115 -92 -211 -114 -308 -21 -91 -20 -133 4 -173 22 -35 92 -96
150 -132 19 -11 42 -29 50 -39 9 -10 29 -29 46 -43 59 -50 75 -93 58 -158 -8
-28 -26 -28 -83 0 -82 40 -181 20 -181 -36 0 -21 9 -27 53 -41 28 -10 59 -23
67 -30 8 -7 34 -22 57 -34 74 -37 173 -180 173 -250 0 -42 -47 -81 -96 -81
-35 0 -44 6 -76 44 -21 24 -58 85 -84 135 -44 86 -49 91 -78 91 -66 0 -72 -43
-21 -145 20 -39 47 -88 60 -110 29 -48 30 -49 8 -70 -13 -14 -28 -16 -70 -12
-50 5 -113 33 -113 49 0 4 -13 29 -29 55 -19 32 -33 73 -40 122 -7 41 -14 78
-17 82 -3 5 -18 9 -34 9 -61 0 -77 -80 -39 -193 25 -75 32 -89 65 -124 49 -53
3 -104 -76 -83 -31 8 -49 23 -79 63 -75 101 -91 151 -94 296 -2 58 -6 75 -20
86 -22 16 -42 10 -71 -19 -18 -18 -21 -33 -21 -111 0 -80 4 -99 34 -170 18
-44 42 -92 53 -108 17 -24 18 -28 3 -33 -29 -11 -88 5 -124 34 -20 16 -51 59
-70 98 -34 66 -35 72 -36 184 0 99 4 126 27 195 14 44 34 107 44 140 9 33 23
67 31 76 7 8 13 19 13 23 0 14 41 96 48 96 4 0 16 16 27 36 10 19 27 40 37 45
10 5 18 14 18 19 0 5 14 29 31 54 l31 44 -1 203 c-3 350 20 484 139 814 18 50
36 95 41 101 5 6 19 40 30 75 11 35 26 71 33 79 7 8 20 34 31 57 10 23 26 50
36 59 11 10 19 21 19 26 0 4 28 42 63 84 34 42 69 86 77 98 16 25 61 75 100
113 30 30 34 92 7 120 -9 10 -37 46 -62 80 -25 34 -125 142 -223 241 -196 198
-332 344 -346 370 -5 9 -14 22 -21 27 -28 23 -146 187 -178 246 -44 83 -59
111 -73 129 -10 13 -43 73 -93 167 -13 26 -41 122 -41 143 0 10 -4 20 -10 22
-5 2 -24 68 -42 148 -30 133 -33 162 -36 351 l-3 206 31 75 c26 66 30 89 30
167 0 92 -22 202 -46 231 -7 8 -20 40 -29 70 -9 30 -24 70 -33 89 -14 29 -17
61 -14 201 1 92 7 191 12 221 6 30 14 97 20 149 11 108 24 170 51 253 10 31
19 73 19 91 0 19 5 38 10 41 6 3 10 15 10 25 0 10 9 34 19 52 11 18 27 58 35
89 10 34 28 67 46 84 17 16 30 32 30 35 0 6 130 139 170 173 82 71 211 167
260 192 18 10 40 23 47 29 24 21 38 31 63 44 14 8 52 29 85 47 55 31 153 82
373 193 45 24 82 46 82 50 0 4 15 13 33 21 17 8 39 20 48 28 20 17 123 80 164
101 17 8 37 21 45 27 20 17 262 101 325 113 75 14 175 14 325 -2z m1126 -451
l38 -13 -41 -21 c-23 -11 -61 -23 -85 -27 -69 -10 -148 -32 -218 -60 -81 -33
-241 -113 -258 -131 -7 -7 -17 -13 -21 -13 -12 0 -143 -131 -171 -170 -36 -53
-60 -74 -127 -113 -62 -36 -82 -36 -44 0 10 10 42 50 71 88 29 39 58 75 64 80
6 6 23 25 38 42 29 35 152 143 163 143 4 0 19 12 34 26 46 46 112 94 137 100
13 3 24 10 24 15 0 17 110 62 175 72 46 7 180 -4 221 -18z m-1186 -719 c0 -13
-101 -60 -164 -76 -41 -11 -87 -26 -102 -34 -16 -8 -49 -20 -74 -27 -102 -27
-201 -65 -240 -89 -8 -6 -37 -21 -65 -34 -27 -13 -63 -35 -80 -50 -16 -14 -35
-26 -41 -26 -14 0 -124 -86 -174 -134 -19 -19 -58 -63 -87 -98 -31 -38 -73
-75 -104 -92 l-51 -29 19 29 c11 16 42 62 68 102 27 41 60 81 74 90 14 8 31
21 36 27 6 6 46 38 90 72 44 33 86 68 94 77 7 9 19 16 25 16 6 0 27 13 46 28
43 35 126 89 203 131 85 47 261 94 407 110 95 11 120 12 120 7z m2108 -815
c12 -11 22 -23 22 -27 0 -4 7 -16 17 -26 15 -17 15 -22 -3 -76 -10 -31 -36
-78 -56 -103 -21 -25 -38 -50 -38 -56 0 -7 -9 -15 -20 -18 -11 -3 -20 -12 -20
-18 0 -24 -149 -164 -191 -179 -11 -4 -35 -19 -53 -33 -18 -14 -37 -25 -43
-25 -5 0 -25 -12 -44 -26 -19 -14 -74 -48 -124 -75 -49 -28 -104 -60 -122 -72
-17 -12 -55 -35 -83 -52 -29 -16 -64 -39 -78 -51 -33 -25 -90 -54 -109 -54
-14 0 -76 -39 -81 -52 -2 -5 -12 -8 -23 -8 -11 0 -30 -6 -42 -14 -12 -8 -71
-29 -132 -47 -60 -17 -121 -37 -135 -44 -14 -7 -70 -23 -125 -35 -55 -13 -109
-29 -120 -36 -11 -6 -58 -18 -105 -25 -56 -8 -91 -19 -103 -31 -10 -10 -27
-18 -38 -18 -31 0 -117 -30 -130 -46 -6 -8 -24 -14 -40 -14 -15 0 -31 -4 -34
-10 -3 -5 -15 -10 -25 -10 -22 0 -130 -51 -227 -108 -39 -23 -76 -42 -82 -42
-6 0 -11 -3 -11 -8 0 -4 -10 -12 -22 -17 -26 -11 -83 -118 -73 -134 10 -17 53
-13 94 8 78 39 137 65 154 67 9 1 25 8 35 17 25 23 206 107 230 107 11 0 27 7
36 15 8 8 21 15 29 15 19 0 113 28 152 46 51 22 132 44 165 44 17 0 41 6 53
14 12 8 41 17 64 21 24 4 45 11 49 16 3 5 18 9 33 9 16 0 45 7 65 15 20 9 89
31 153 51 64 19 143 50 177 67 34 18 88 43 121 56 33 13 65 31 72 39 6 8 35
25 62 38 28 13 51 27 51 32 0 5 15 15 33 23 17 7 48 25 67 41 19 15 42 28 51
28 9 0 23 7 30 17 8 9 32 25 54 35 22 10 74 41 115 68 41 27 96 61 122 75 26
14 51 31 55 38 4 8 18 20 31 26 42 22 79 56 127 114 16 20 34 37 39 37 19 0
35 -37 36 -82 0 -37 -4 -50 -20 -58 -11 -6 -20 -20 -20 -30 0 -11 -4 -20 -8
-20 -5 0 -38 -28 -73 -62 -68 -66 -86 -79 -142 -97 -19 -7 -43 -21 -52 -31
-10 -11 -26 -20 -36 -20 -10 0 -21 -4 -24 -10 -3 -5 -13 -10 -22 -10 -9 0 -25
-8 -35 -17 -10 -9 -41 -24 -68 -34 -27 -9 -64 -29 -83 -43 -19 -14 -43 -26
-54 -26 -11 0 -26 -7 -33 -15 -7 -8 -24 -21 -39 -29 -14 -7 -75 -40 -136 -71
-60 -32 -129 -68 -153 -80 -24 -13 -51 -29 -60 -36 -25 -20 -60 -39 -73 -39
-6 0 -22 -9 -36 -20 -14 -11 -34 -20 -44 -20 -11 0 -19 -4 -19 -9 0 -5 -20
-12 -45 -15 -24 -4 -47 -11 -50 -16 -3 -5 -27 -12 -53 -15 -26 -4 -60 -11 -77
-16 -16 -5 -86 -26 -155 -46 -75 -22 -182 -63 -267 -105 -78 -37 -151 -68
-162 -68 -11 0 -23 -5 -26 -10 -4 -6 -28 -20 -53 -32 -87 -39 -177 -84 -235
-119 -32 -19 -68 -39 -79 -46 -11 -6 -23 -15 -27 -20 -10 -15 -103 -36 -181
-42 -93 -7 -166 0 -185 19 -8 9 -16 48 -21 102 l-7 88 46 56 c60 72 78 86 179
135 45 23 94 47 108 54 14 7 45 19 70 26 25 6 70 20 101 30 30 11 65 19 77 19
11 0 24 5 27 10 3 6 21 10 40 10 36 0 81 16 103 37 7 7 19 13 25 13 7 0 36 16
64 35 29 19 59 35 67 35 9 0 32 7 53 16 21 9 52 22 68 29 17 7 47 20 68 29 21
9 43 16 50 16 7 0 18 5 25 12 6 6 43 22 82 34 39 13 78 30 86 39 9 8 26 15 39
15 13 0 27 5 30 10 3 6 17 10 30 10 14 0 39 8 57 18 18 9 58 26 88 36 30 10
62 24 70 30 16 13 46 27 98 46 17 7 32 16 32 20 0 5 24 20 53 35 28 15 70 37
92 50 22 14 50 29 63 35 12 5 25 17 28 25 4 8 12 15 20 15 15 0 113 60 137 84
8 9 35 26 59 39 23 13 63 41 88 63 69 60 215 207 226 226 8 15 65 79 160 179
19 21 34 42 34 48 0 17 22 13 48 -8z m1216 -3634 c58 -59 123 -138 172 -211
12 -17 29 -37 38 -45 9 -7 16 -19 16 -26 0 -6 18 -37 40 -68 22 -30 40 -59 40
-63 0 -4 8 -16 17 -26 27 -30 153 -278 168 -330 3 -13 19 -66 35 -118 45 -151
55 -208 54 -320 -1 -118 -17 -188 -62 -274 -80 -149 -158 -167 -208 -46 -10
24 -17 84 -19 188 -4 138 -3 158 15 198 11 24 24 44 29 44 5 0 16 21 25 48 10
26 21 55 27 64 15 28 10 64 -11 83 -28 26 -62 13 -83 -32 -56 -114 -84 -162
-132 -226 -38 -51 -56 -62 -87 -54 -18 5 -28 18 -38 46 -14 43 -15 37 45 246
22 77 26 113 28 245 2 173 -7 216 -50 226 -20 5 -31 0 -50 -22 -21 -24 -23
-35 -17 -64 24 -109 -7 -378 -56 -485 -5 -11 -18 -41 -29 -67 -14 -35 -25 -48
-40 -48 -27 0 -27 32 0 125 11 39 25 95 31 125 12 68 3 259 -16 320 -8 25 -22
71 -31 103 -9 32 -29 72 -45 90 -15 18 -29 39 -30 47 -5 32 1 59 14 72 21 22
41 66 65 145 13 40 26 75 31 78 5 3 12 26 16 50 4 30 11 45 21 45 8 0 43 -28
77 -63z m-35 -1268 c22 -30 22 -33 11 -137 -15 -129 -15 -132 -34 -132 -26 0
-37 38 -43 149 -8 146 15 189 66 120z m214 -139 c4 -47 14 -108 22 -137 20
-70 19 -80 -12 -97 -58 -29 -103 20 -111 120 -6 75 11 150 41 182 38 41 51 26
60 -68z"/>
<path d="M3785 8740 c-16 -4 -56 -8 -87 -9 -57 -1 -222 -35 -242 -49 -6 -4
-29 -14 -51 -21 -86 -28 -224 -102 -300 -160 -177 -136 -200 -159 -260 -257
-46 -78 -115 -217 -115 -235 0 -9 -7 -39 -16 -67 -19 -57 -12 -119 13 -129 21
-8 54 33 77 97 25 68 134 283 152 296 8 6 14 14 14 19 0 21 39 56 215 198 78
63 274 150 385 171 47 9 113 23 147 31 83 20 343 20 398 0 65 -24 127 -20 155
10 21 23 22 26 7 48 -9 15 -32 28 -59 35 -113 28 -360 40 -433 22z"/>
<path d="M4587 7757 c-33 -50 -136 -139 -182 -157 -12 -4 -27 -15 -34 -24 -7
-9 -18 -16 -23 -16 -11 0 -170 -86 -223 -120 -16 -11 -37 -23 -45 -26 -35 -16
-177 -114 -202 -141 -15 -15 -34 -45 -43 -65 -15 -37 -15 -38 9 -44 14 -3 36
0 50 8 97 51 133 72 151 88 11 9 36 26 55 36 19 10 42 24 50 30 8 6 35 22 60
35 25 13 59 34 76 46 17 13 38 23 46 23 8 0 26 8 39 18 13 9 44 28 69 42 25
13 50 28 55 32 6 4 38 29 73 54 34 25 74 61 88 79 55 73 52 155 -5 155 -26 0
-36 -8 -64 -53z"/>
<path d="M5182 7648 c-17 -17 -15 -39 6 -66 14 -18 26 -23 53 -20 30 3 34 6
37 36 2 18 -2 40 -9 48 -14 17 -70 19 -87 2z"/>
<path d="M4992 7528 c-17 -17 -15 -42 6 -61 24 -22 46 -22 63 0 16 18 13 54
-5 65 -17 12 -51 9 -64 -4z"/>
</g>
</svg>
