<?xml version="1.0" standalone="no"?>
<!DOCTYPE svg PUBLIC "-//W3C//DTD SVG 20010904//EN"
 "http://www.w3.org/TR/2001/REC-SVG-20010904/DTD/svg10.dtd">
<svg version="1.0" xmlns="http://www.w3.org/2000/svg"
 width="1080.000000pt" height="1080.000000pt" viewBox="0 0 1080.000000 1080.000000"
 preserveAspectRatio="xMidYMid meet">

<g transform="translate(0.000000,1080.000000) scale(0.100000,-0.100000)"
fill="#000000" stroke="none">
<path d="M4846 10778 c-11 -6 -57 -19 -104 -30 -76 -17 -91 -24 -151 -75 -36
-31 -72 -65 -80 -76 -22 -31 -40 -141 -41 -244 0 -75 5 -105 25 -160 14 -37
37 -79 50 -93 32 -33 34 -89 5 -115 -11 -10 -31 -36 -44 -59 -13 -23 -55 -65
-93 -94 -37 -30 -79 -69 -93 -87 -14 -19 -37 -39 -52 -45 -14 -7 -47 -40 -73
-75 -25 -35 -52 -68 -59 -74 -15 -13 -98 12 -135 41 -13 10 -29 18 -35 18 -7
0 -40 27 -73 59 -34 33 -72 63 -85 66 -13 4 -36 20 -53 36 -78 73 -124 107
-168 125 -35 13 -57 31 -78 61 -34 48 -36 85 -13 164 19 62 13 215 -10 293
-37 121 -176 227 -331 251 -57 9 -197 -27 -293 -75 -85 -43 -113 -73 -152
-164 -11 -27 -31 -62 -45 -78 -38 -45 -42 -89 -12 -140 13 -24 27 -65 30 -91
7 -52 44 -147 58 -147 4 0 20 -20 34 -45 16 -26 43 -54 66 -67 21 -12 39 -24
39 -27 -1 -3 -12 -24 -26 -46 -47 -76 -74 -140 -74 -175 -1 -38 -14 -61 -46
-78 -12 -6 -31 -36 -43 -68 -12 -32 -31 -64 -41 -71 -11 -8 -27 -29 -36 -46
-9 -18 -29 -44 -44 -58 -15 -14 -38 -54 -50 -88 -20 -53 -29 -65 -63 -83 l-40
-20 -48 23 c-27 12 -56 33 -64 46 -9 13 -27 28 -41 33 -14 6 -51 27 -82 49
-32 21 -87 52 -123 68 -37 17 -74 42 -86 58 -20 29 -20 29 -2 73 11 25 17 52
14 61 -3 10 -9 63 -15 119 -10 107 -27 154 -60 172 -11 6 -26 23 -34 39 -10
18 -34 37 -68 52 -48 21 -66 23 -182 22 -161 -1 -201 -12 -271 -74 -31 -27
-60 -49 -65 -49 -5 0 -17 -15 -27 -32 -22 -42 -31 -300 -13 -367 13 -48 120
-169 197 -222 39 -27 43 -34 59 -107 20 -88 19 -83 10 -138 -7 -37 -4 -46 22
-75 26 -30 30 -45 36 -119 11 -133 36 -280 58 -335 22 -57 36 -159 44 -320 6
-117 16 -158 44 -178 15 -10 19 -42 28 -211 7 -109 9 -203 6 -208 -3 -5 2 -40
11 -76 22 -86 12 -129 -50 -201 -25 -29 -45 -57 -45 -61 0 -5 -20 -32 -44 -59
-24 -27 -47 -59 -51 -70 -3 -11 -14 -23 -24 -26 -11 -3 -29 -29 -41 -58 -12
-29 -35 -72 -50 -97 -15 -25 -36 -71 -46 -102 -13 -43 -23 -58 -40 -62 -17 -5
-23 -15 -27 -48 -8 -72 -27 -131 -57 -178 -15 -25 -35 -71 -44 -102 -14 -50
-21 -60 -50 -72 -40 -17 -56 -55 -56 -131 0 -47 -2 -53 -24 -59 -13 -3 -46
-23 -73 -45 -27 -21 -64 -46 -81 -55 -17 -9 -39 -30 -47 -47 -9 -17 -29 -35
-46 -41 -16 -6 -36 -23 -44 -38 -8 -16 -28 -37 -45 -46 -16 -10 -34 -31 -41
-46 -6 -16 -24 -36 -39 -45 -29 -17 -53 -57 -64 -109 -6 -25 -14 -33 -36 -38
-23 -4 -31 -13 -41 -47 -8 -26 -21 -44 -35 -50 -22 -8 -29 -23 -50 -114 -4
-16 -21 -46 -38 -65 -17 -19 -38 -51 -46 -70 -7 -19 -23 -47 -36 -62 -15 -19
-28 -63 -45 -150 -20 -110 -26 -126 -53 -151 l-31 -28 -8 -417 c-7 -398 -5
-603 9 -739 l6 -62 -69 -20 c-40 -12 -79 -31 -92 -45 -13 -13 -34 -27 -47 -30
l-24 -6 0 -176 0 -176 37 8 c21 5 103 8 183 7 183 -2 216 -13 287 -91 29 -31
53 -61 53 -67 -1 -39 -76 -66 -195 -69 -53 -2 -108 -10 -134 -20 -29 -11 -75
-16 -137 -16 l-94 0 0 -175 c0 -134 3 -175 13 -175 6 0 43 9 81 20 38 10 96
22 130 25 33 4 85 11 113 16 29 6 92 12 140 13 49 2 134 7 189 11 130 10 206
-11 309 -85 39 -27 100 -70 137 -95 37 -25 70 -50 73 -55 4 -6 23 -19 43 -29
20 -10 66 -42 102 -71 36 -29 88 -63 115 -77 28 -14 66 -39 85 -55 68 -57 165
-121 219 -145 31 -14 99 -53 151 -88 52 -34 118 -70 146 -79 28 -9 62 -28 75
-42 13 -13 47 -32 77 -40 30 -9 71 -30 91 -48 20 -17 76 -52 125 -76 103 -52
324 -233 488 -399 40 -41 98 -98 128 -127 67 -64 71 -68 174 -175 46 -48 96
-104 112 -125 16 -22 46 -56 67 -77 31 -31 36 -41 27 -57 -18 -33 -126 -21
-181 19 -33 25 -118 57 -174 67 -22 3 -54 15 -71 25 -18 11 -65 24 -105 29
-106 14 -242 37 -286 49 -84 22 -275 44 -518 60 -123 8 -142 15 -224 86 -30
25 -76 57 -102 71 -27 13 -53 34 -60 46 -6 13 -23 36 -38 51 -24 27 -25 29 -8
41 9 8 59 19 110 25 179 22 469 -3 573 -49 26 -11 97 -29 158 -40 104 -18 112
-19 124 -3 24 33 15 60 -31 81 -24 11 -61 35 -84 54 -142 115 -149 120 -248
153 -138 48 -186 55 -400 60 -154 4 -194 8 -229 24 -35 15 -80 20 -266 26
-209 7 -228 9 -308 36 -47 16 -95 38 -106 48 -12 11 -50 33 -86 51 -39 19 -80
49 -104 76 l-38 44 28 11 c63 23 120 22 295 -10 283 -51 331 -62 392 -89 50
-22 64 -24 105 -16 l47 9 -3 44 c-2 40 -9 51 -60 100 -31 31 -90 93 -130 138
-83 94 -161 146 -292 193 -45 17 -91 35 -101 40 -9 6 -66 17 -126 26 -198 30
-542 8 -695 -45 -31 -11 -81 -22 -112 -26 l-56 -7 0 -281 0 -280 77 7 c52 5
100 17 147 38 69 30 70 30 156 19 47 -6 104 -11 127 -11 28 0 52 -8 81 -29 22
-17 69 -44 104 -62 34 -17 96 -55 137 -83 124 -86 135 -93 161 -101 34 -10
143 -75 272 -162 59 -40 112 -73 117 -73 17 0 120 -91 165 -147 40 -48 46 -61
46 -102 0 -71 25 -156 78 -260 40 -79 64 -110 154 -203 75 -76 122 -115 155
-130 26 -11 72 -31 102 -45 71 -32 144 -45 206 -38 34 4 64 1 95 -10 95 -34
300 -190 300 -229 0 -14 34 -16 335 -16 329 0 335 0 335 20 0 29 -51 57 -118
65 -32 4 -86 20 -122 35 -36 16 -114 38 -175 50 -80 15 -125 29 -164 53 -70
42 -190 155 -218 205 l-23 40 29 10 c23 8 35 6 60 -9 18 -11 62 -28 99 -38 37
-10 95 -32 129 -49 33 -17 104 -40 157 -51 52 -10 108 -28 124 -40 16 -11 64
-29 107 -41 43 -12 90 -29 104 -39 40 -27 108 -51 146 -51 20 0 61 -13 93 -29
32 -16 78 -34 102 -41 71 -19 120 -48 120 -70 0 -20 11 -20 1200 -20 l1200 0
0 158 c1 259 27 679 44 723 19 45 157 67 191 29 22 -24 15 -93 -19 -184 -32
-84 -58 -243 -58 -352 1 -94 15 -147 46 -173 14 -12 22 -10 57 15 23 16 55 44
70 64 116 143 171 213 194 251 42 67 152 186 214 232 31 23 85 71 121 108 36
36 80 74 97 83 l33 16 25 -39 c23 -33 28 -57 38 -167 l11 -127 -59 -55 c-33
-29 -87 -66 -121 -82 -33 -15 -87 -52 -120 -82 -32 -31 -75 -66 -94 -79 -109
-75 -190 -143 -224 -188 -21 -28 -41 -51 -45 -51 -16 0 -71 -61 -71 -79 0 -21
4 -21 340 -21 306 0 340 2 340 16 0 19 50 114 60 114 18 0 52 -53 57 -89 l6
-41 118 0 119 0 0 30 c0 23 -5 31 -24 36 -26 6 -41 36 -66 127 -11 40 -19 52
-47 65 -24 11 -36 26 -43 51 -15 55 -12 75 15 101 33 31 54 20 75 -38 9 -22
25 -51 37 -64 32 -34 50 -84 57 -160 6 -53 11 -67 26 -71 12 -3 21 -18 25 -41
l7 -36 106 0 105 0 -6 83 c-4 52 -15 105 -32 146 -14 36 -25 75 -25 88 0 44
-28 93 -59 104 -26 9 -31 18 -46 84 -13 58 -22 79 -43 95 -15 12 -32 38 -38
58 -8 29 -16 38 -37 40 -14 2 -30 9 -35 15 -5 7 -15 56 -21 109 -6 53 -16 109
-21 124 -9 22 -6 33 17 70 23 35 34 44 67 50 21 3 70 17 107 30 38 13 74 24
81 24 26 0 88 52 110 91 13 22 31 55 40 72 22 39 37 45 110 46 43 1 63 6 85
24 47 38 80 47 199 56 113 9 123 12 174 57 15 13 62 31 115 44 50 12 108 32
130 44 22 13 61 31 86 40 25 10 61 33 78 52 18 19 37 34 42 34 5 0 18 14 28
31 13 21 37 39 76 55 32 12 74 39 94 59 20 21 67 66 105 101 65 59 69 66 74
114 3 39 10 55 27 66 13 8 31 34 40 57 24 59 45 236 35 283 -5 21 -12 79 -15
129 -8 109 -19 149 -49 173 -13 9 -29 28 -36 41 -21 40 -92 112 -130 131 -20
11 -45 36 -58 59 l-23 41 23 10 c13 5 50 14 83 20 37 6 64 16 70 26 6 10 19
24 30 33 10 9 35 31 54 49 19 18 51 42 70 52 20 10 43 29 50 43 7 13 30 31 50
40 52 23 96 89 117 173 9 38 23 76 30 85 39 45 42 225 6 277 -12 15 -24 40
-27 54 -13 50 -169 198 -209 198 -25 0 -86 44 -86 62 0 5 -14 23 -30 38 -22
20 -30 38 -31 64 -1 20 -2 41 -3 47 -2 23 113 45 199 39 44 -4 130 -2 190 3
61 5 144 11 185 12 95 3 148 25 186 75 16 22 36 41 44 43 13 4 13 5 0 6 -15 2
-55 47 -65 73 -8 19 58 43 82 30 9 -6 22 -27 28 -48 5 -20 15 -39 21 -41 14
-5 38 53 54 131 17 82 4 771 -16 836 -10 33 -14 120 -14 337 0 287 0 293 -23
336 -24 44 -24 50 -32 473 -13 675 -9 637 -61 665 -20 10 -24 20 -24 58 0 27
-10 67 -23 95 l-23 50 -38 -50 c-21 -27 -40 -49 -42 -49 -3 0 -17 22 -32 50
-38 71 -66 79 -267 78 -415 -3 -944 -21 -1040 -37 -63 -9 -166 -15 -277 -16
l-177 0 -10 38 c-6 20 -14 57 -20 81 -5 25 -19 56 -31 70 -11 14 -31 49 -44
76 -13 28 -33 59 -45 69 -11 11 -21 29 -21 40 0 12 -9 39 -19 61 -15 34 -36
52 -117 103 -54 34 -103 62 -110 62 -6 0 -16 11 -22 24 -7 16 -27 30 -59 40
-26 9 -58 27 -71 41 -21 22 -76 45 -108 45 -6 0 -29 12 -50 26 -47 32 -191 74
-255 74 -59 0 -208 45 -224 67 -25 34 -46 179 -47 325 0 92 -5 154 -13 173
-23 52 -43 905 -24 986 8 37 25 60 84 121 41 41 79 86 84 101 14 37 15 230 2
289 -16 71 -30 95 -71 122 -21 14 -51 38 -67 54 -32 34 -111 52 -224 52 -95 0
-133 -14 -190 -71 -27 -27 -54 -49 -60 -49 -14 0 -64 -113 -76 -171 -13 -60
-7 -104 22 -159 21 -40 23 -51 14 -85 -8 -30 -18 -44 -42 -55 -21 -10 -36 -26
-43 -48 -6 -18 -21 -39 -35 -45 -13 -7 -33 -27 -44 -44 -11 -17 -35 -36 -53
-42 -18 -7 -39 -23 -48 -35 -8 -13 -52 -49 -97 -80 -69 -46 -91 -56 -126 -56
-49 0 -106 22 -141 54 -14 13 -36 27 -50 31 -31 9 -76 44 -144 111 -40 39 -62
52 -94 58 -35 5 -46 13 -67 46 -14 22 -30 40 -35 40 -5 0 -26 17 -47 38 -22
20 -47 42 -57 47 -16 9 -17 18 -11 62 5 38 12 54 25 58 37 12 50 64 50 207 -1
83 -6 147 -14 169 -19 55 -91 134 -158 174 -54 32 -65 35 -107 29 -34 -4 -57
-2 -79 10 -36 19 -59 20 -86 4z m147 -262 c54 -60 67 -84 67 -129 0 -37 -6
-51 -30 -75 -16 -17 -30 -37 -30 -45 0 -31 -39 -50 -113 -55 -91 -6 -126 10
-168 76 -34 53 -39 117 -14 180 23 56 59 71 173 71 86 1 95 -1 115 -23z
m-1851 -85 c13 -5 39 -23 58 -40 19 -17 42 -33 51 -36 20 -7 29 -73 20 -136
-7 -42 -64 -133 -96 -151 -6 -4 -49 -10 -93 -14 l-82 -7 -36 39 c-56 61 -62
79 -56 172 l5 83 56 42 c75 56 119 69 173 48z m3596 -104 c52 -48 69 -132 35
-169 -19 -21 -80 -24 -148 -7 -35 9 -46 17 -54 42 -23 65 -4 123 51 151 40 20
83 14 116 -17z m-1700 -422 c33 -25 65 -45 71 -45 7 0 36 -22 64 -49 29 -27
72 -59 97 -71 25 -13 71 -45 102 -72 62 -54 140 -114 219 -168 27 -19 89 -65
137 -102 98 -77 118 -81 224 -52 60 17 85 39 120 102 9 18 42 47 72 67 31 20
56 40 56 45 0 5 30 38 67 72 37 35 86 81 109 103 23 22 62 57 87 78 40 33 48
36 70 26 37 -17 61 -77 53 -136 -4 -27 -2 -63 5 -83 6 -19 15 -123 20 -230 21
-477 28 -627 40 -810 11 -192 11 -196 -10 -237 -26 -52 -56 -63 -196 -70 -75
-3 -126 -13 -205 -38 -58 -18 -150 -43 -205 -54 -55 -12 -127 -35 -160 -51
-33 -16 -84 -38 -113 -49 -29 -11 -78 -40 -110 -64 -31 -24 -96 -69 -144 -100
-47 -32 -101 -73 -120 -92 -136 -142 -145 -149 -184 -139 -15 4 -67 42 -116
85 -49 44 -94 79 -99 79 -6 0 -22 13 -37 30 -15 16 -47 40 -72 53 -29 15 -46
32 -50 48 -5 19 -15 26 -50 32 -98 17 -136 29 -160 51 -42 39 -65 46 -159 46
-53 0 -108 6 -134 15 -32 11 -52 12 -78 5 -50 -15 -83 -12 -145 10 -51 17 -68
18 -173 10 -64 -5 -134 -14 -156 -20 -22 -5 -89 -13 -150 -16 -77 -5 -121 -12
-147 -25 -28 -14 -59 -19 -129 -19 -72 0 -98 -4 -123 -19 -50 -30 -127 -42
-205 -31 -37 5 -75 12 -84 16 -19 7 -42 -5 -95 -50 -31 -25 -62 -39 -117 -52
-52 -12 -86 -27 -107 -46 -17 -15 -41 -28 -53 -28 -43 0 -116 -32 -125 -55 -5
-14 -20 -24 -38 -28 -17 -3 -48 -24 -70 -46 -26 -27 -51 -42 -78 -46 -44 -8
-84 -30 -84 -46 0 -6 -23 -32 -50 -58 l-51 -48 -24 29 c-14 16 -25 36 -25 44
0 8 -9 33 -21 56 -19 38 -20 43 -6 85 13 40 13 47 -4 80 -15 29 -19 60 -19
143 -1 118 -9 168 -36 207 -11 14 -22 31 -26 37 -3 6 -11 80 -17 164 -15 191
-27 259 -53 296 -21 29 -47 184 -48 283 0 34 -6 46 -31 68 -28 23 -32 32 -33
83 l-1 57 35 -3 c19 -1 46 -11 60 -23 14 -11 44 -32 66 -47 25 -17 45 -39 50
-57 9 -29 12 -30 69 -33 85 -3 97 -7 150 -51 26 -21 60 -41 75 -44 19 -4 34
-18 47 -44 28 -53 85 -73 209 -74 120 -1 143 13 167 100 10 34 23 61 30 61 19
1 45 43 56 89 5 24 21 52 39 69 16 15 38 51 48 79 11 31 28 57 40 64 28 14
134 264 134 314 0 8 15 28 32 44 28 26 34 39 38 88 5 57 6 58 60 94 31 20 73
38 97 41 35 5 45 2 65 -19 13 -14 37 -32 53 -40 17 -8 41 -26 55 -39 14 -12
52 -35 85 -49 33 -15 89 -53 125 -84 36 -32 88 -70 116 -84 27 -14 65 -39 83
-56 29 -27 84 -51 118 -51 6 0 30 -23 53 -50 58 -70 119 -104 168 -96 63 12
70 16 101 57 40 55 141 159 231 239 67 59 146 148 210 235 16 22 41 40 71 50
30 10 57 29 78 55 30 37 47 45 113 49 17 0 46 -14 86 -44z m-3330 -251 c32
-21 45 -60 39 -119 -3 -33 -10 -53 -22 -60 -10 -5 -33 -22 -50 -37 -50 -43
-94 -38 -155 14 -40 35 -51 50 -56 84 -3 23 -3 51 0 61 21 67 174 102 244 57z
m5282 -1556 c14 -5 32 -18 41 -30 15 -19 11 -24 -89 -126 l-105 -105 -34 39
c-19 21 -45 55 -58 75 -13 20 -41 44 -62 53 -81 36 -85 42 -47 79 23 24 35 27
112 30 105 5 207 -2 242 -15z m-665 -159 c22 -29 63 -75 90 -104 28 -28 70
-78 95 -110 25 -32 71 -88 103 -124 53 -60 57 -69 57 -114 0 -59 -11 -82 -51
-102 -27 -15 -33 -14 -72 3 -24 11 -74 53 -117 98 -77 80 -121 117 -200 168
-25 16 -61 42 -80 58 -58 48 -136 95 -197 118 -32 12 -64 26 -71 32 -27 23 62
87 183 133 11 4 56 10 100 14 94 8 103 4 160 -70z m1141 36 c12 -8 24 -32 31
-59 l10 -47 -43 -35 c-45 -37 -94 -113 -94 -145 0 -11 10 -29 21 -40 17 -17
29 -20 63 -16 23 3 49 9 58 12 24 9 50 -22 38 -45 -22 -42 -114 -157 -156
-196 l-44 -41 -102 -7 c-57 -4 -134 -14 -173 -22 -97 -19 -158 -18 -177 4 -9
9 -23 37 -31 61 -13 41 -13 46 9 85 12 22 26 64 29 91 5 34 16 59 35 80 15 17
39 53 53 81 22 43 32 52 67 63 24 7 59 9 84 6 41 -6 47 -4 86 31 23 21 51 56
62 78 36 73 56 88 108 80 25 -3 54 -12 66 -19z m-3556 -31 c33 -20 60 -41 60
-45 0 -8 120 -130 177 -180 10 -9 36 -40 58 -69 22 -30 51 -66 65 -81 75 -79
110 -129 110 -156 0 -48 -19 -63 -95 -74 -39 -6 -95 -14 -126 -20 -127 -21
-178 -4 -228 78 -16 27 -40 62 -53 78 -13 17 -36 51 -51 77 -34 58 -203 228
-276 277 -30 20 -56 41 -58 46 -1 6 6 25 17 43 18 29 24 32 72 33 29 0 78 9
108 19 81 28 145 21 220 -26z m712 -82 c26 -18 68 -41 93 -52 66 -28 171 -93
235 -145 30 -25 78 -61 107 -80 29 -19 56 -42 61 -50 4 -9 30 -30 57 -48 26
-18 53 -41 59 -52 6 -11 19 -32 29 -47 17 -26 17 -27 -5 -39 -27 -14 -118 -13
-156 3 -42 17 -181 38 -252 38 -48 0 -74 6 -100 21 -43 26 -43 26 -80 123 -25
64 -45 96 -105 163 -41 46 -75 90 -75 98 0 7 -12 27 -26 44 -40 48 -27 64 49
59 50 -3 71 -10 109 -36z m-1384 -92 c31 -27 66 -63 77 -79 48 -69 114 -152
181 -226 39 -44 77 -92 84 -105 7 -14 26 -41 41 -60 15 -19 32 -52 39 -74 12
-37 11 -40 -18 -68 -20 -20 -45 -33 -78 -39 -52 -10 -72 -27 -81 -71 -8 -39
-39 -65 -61 -51 -13 8 -16 23 -14 61 l2 50 -75 42 c-42 23 -88 58 -103 77 -15
19 -53 63 -85 97 -33 33 -71 77 -85 96 -26 34 -83 91 -216 219 l-66 64 23 31
c13 17 39 39 58 48 50 25 185 48 257 43 59 -4 67 -8 120 -55z m2285 -154 c18
-13 59 -33 92 -45 33 -13 78 -34 100 -48 119 -74 156 -95 221 -126 46 -23 73
-42 76 -55 3 -12 21 -30 39 -41 19 -11 46 -32 60 -46 21 -22 40 -29 90 -35 35
-4 77 -12 92 -18 27 -12 27 -12 12 -42 -19 -37 -52 -46 -100 -26 -21 9 -54 16
-75 16 -21 0 -64 12 -96 27 -33 15 -77 30 -99 34 -22 4 -67 16 -100 27 -33 12
-107 31 -165 43 -100 22 -107 26 -149 69 -24 25 -65 78 -91 117 l-48 73 25 37
c47 69 67 76 116 39z m2311 -28 c25 -22 44 -51 56 -88 18 -53 18 -55 -2 -82
-20 -28 -22 -29 -105 -26 -80 3 -87 5 -106 30 l-20 27 58 85 c32 48 63 86 70
86 6 0 29 -15 49 -32z m-5316 -183 c128 -42 245 -98 271 -129 7 -8 37 -29 67
-46 35 -19 54 -37 54 -49 0 -10 13 -35 29 -55 16 -21 31 -40 33 -44 2 -4 22
-19 46 -35 48 -31 55 -64 21 -98 -22 -22 -14 -25 -94 27 -37 24 -87 32 -141
23 -47 -7 -50 -6 -79 25 -34 37 -136 82 -163 71 -9 -4 -53 -6 -97 -5 -89 1
-244 -14 -376 -36 -48 -8 -93 -14 -101 -14 -20 0 -68 45 -68 63 0 16 169 190
249 256 80 67 150 102 186 95 17 -3 90 -26 163 -49z m2481 -228 c15 -40 37
-50 91 -44 32 4 65 1 90 -8 35 -12 44 -12 77 2 33 13 49 14 118 4 122 -18 129
-21 117 -33 -7 -7 -53 -11 -119 -10 -59 0 -243 1 -408 3 -165 1 -354 2 -420 2
-66 -1 -143 0 -172 1 -44 1 -55 -3 -77 -27 -14 -15 -26 -32 -26 -36 0 -12 -67
-21 -90 -13 -17 7 -17 9 5 35 13 15 29 27 34 27 6 0 14 6 18 13 6 10 66 17
228 26 342 19 347 20 375 46 32 29 45 33 103 34 41 1 49 -2 56 -22z m-919
-147 c13 0 13 -1 0 -10 -19 -12 -87 -13 -95 -1 -6 11 31 20 60 15 11 -2 27 -4
35 -4z m-1862 -320 c74 -10 112 -31 113 -63 1 -20 1 -20 10 4 7 20 19 28 42
32 44 6 51 2 74 -46 19 -41 19 -43 1 -83 -14 -33 -16 -51 -9 -87 6 -36 4 -55
-10 -87 -16 -36 -22 -40 -53 -40 -19 0 -61 -7 -92 -15 -109 -28 -209 -36 -272
-21 -31 8 -124 17 -206 21 -138 5 -152 4 -202 -16 -52 -22 -54 -22 -98 -5 -25
10 -46 23 -46 31 0 25 49 123 105 208 42 65 63 88 83 93 15 3 70 19 122 35 52
17 136 35 185 40 50 5 95 11 100 13 11 3 59 -1 153 -14z m113 -612 c39 -9 56
-19 69 -40 l17 -28 40 30 c46 34 53 29 53 -43 0 -35 -6 -46 -45 -84 -39 -37
-51 -43 -89 -43 -41 0 -44 -2 -58 -39 -12 -29 -37 -55 -111 -110 -53 -39 -101
-80 -106 -90 -6 -10 -36 -37 -68 -61 -32 -25 -79 -65 -104 -90 -54 -51 -104
-93 -169 -138 -25 -17 -80 -65 -123 -106 -42 -42 -82 -76 -87 -76 -6 0 -71
-60 -144 -134 -98 -98 -137 -144 -146 -172 -7 -22 -26 -60 -42 -86 -17 -26
-38 -78 -48 -115 -10 -38 -26 -86 -36 -108 -17 -35 -19 -64 -18 -225 2 -171 4
-191 28 -263 14 -43 26 -84 26 -93 0 -39 120 -209 148 -209 10 0 26 19 40 46
21 43 22 48 7 88 -8 24 -15 61 -15 82 0 56 31 230 46 260 7 14 22 61 33 105
24 94 109 280 141 309 12 11 29 33 37 50 16 31 33 53 128 164 30 35 55 68 55
73 0 5 19 28 43 52 52 54 185 213 235 283 62 86 154 193 210 247 45 43 62 52
100 56 l46 5 16 64 c10 44 22 68 37 79 21 13 23 12 34 -14 7 -18 12 -118 12
-262 l2 -234 -25 -19 c-46 -36 -92 -84 -117 -123 -14 -21 -37 -52 -53 -70
-126 -140 -237 -259 -280 -301 -215 -208 -311 -358 -370 -575 -24 -86 -30
-139 -39 -295 -6 -122 -6 -206 0 -235 5 -25 16 -79 24 -120 8 -41 21 -110 30
-153 8 -43 21 -90 28 -104 l14 -26 26 34 c29 38 46 98 80 279 13 69 36 154 51
190 15 36 35 95 44 131 17 64 84 190 128 239 12 14 32 45 44 70 26 53 70 115
125 179 23 25 52 63 65 84 14 21 36 40 50 44 14 3 36 12 50 19 14 7 33 15 43
18 9 3 17 15 17 27 0 12 9 53 21 91 18 63 22 68 42 62 31 -9 30 -8 34 -67 3
-47 1 -55 -26 -84 -17 -18 -37 -33 -46 -33 -17 0 -30 -23 -39 -71 -3 -19 -24
-72 -46 -116 -33 -68 -63 -141 -73 -176 -3 -14 65 -47 96 -47 16 0 38 10 51
23 72 72 175 123 224 110 l22 -5 -20 -25 c-11 -14 -20 -31 -20 -37 0 -6 -29
-38 -65 -71 -62 -56 -68 -65 -90 -140 -13 -44 -35 -109 -50 -145 -54 -127 -57
-442 -5 -555 24 -54 156 -185 278 -276 55 -41 139 -103 187 -139 48 -36 105
-77 128 -92 22 -15 53 -40 69 -55 15 -14 43 -36 62 -47 19 -12 76 -49 126 -84
51 -34 106 -70 124 -79 17 -8 40 -23 51 -33 19 -17 43 -31 220 -126 39 -20 82
-47 97 -59 14 -12 50 -30 80 -39 29 -10 67 -30 83 -46 17 -16 50 -36 75 -46
25 -10 62 -28 84 -42 21 -13 56 -30 78 -38 23 -8 64 -27 92 -43 28 -16 69 -34
91 -41 22 -7 59 -23 83 -37 24 -14 75 -36 114 -49 40 -13 82 -31 96 -40 13 -8
47 -22 75 -31 29 -8 78 -28 109 -44 31 -16 92 -38 134 -50 42 -12 107 -36 143
-54 36 -18 80 -36 96 -39 17 -4 55 -18 85 -32 30 -14 118 -40 195 -59 77 -18
172 -43 210 -54 39 -12 114 -28 168 -36 54 -8 109 -22 122 -31 13 -8 79 -24
147 -34 68 -10 155 -23 193 -29 157 -23 292 -33 515 -37 129 -3 251 -9 271
-15 42 -11 67 -35 52 -50 -14 -14 -191 -46 -333 -60 -68 -6 -142 -18 -163 -25
-22 -8 -59 -14 -83 -14 -23 0 -76 -5 -117 -10 -52 -8 -126 -8 -244 0 -144 9
-174 14 -213 34 -25 13 -63 26 -85 30 -93 15 -351 81 -495 126 -85 27 -166 52
-180 56 -14 3 -56 21 -95 39 -44 22 -98 38 -145 44 -71 10 -76 9 -92 -10 -10
-12 -18 -25 -18 -29 0 -8 44 -43 173 -138 65 -47 110 -72 215 -117 21 -10 32
-22 32 -35 0 -11 11 -27 25 -36 14 -9 22 -20 19 -25 -3 -5 -62 -9 -132 -9
-160 0 -221 21 -343 116 -46 35 -109 83 -139 106 -30 23 -101 87 -156 142
-155 154 -198 192 -241 214 -22 11 -45 28 -53 37 -8 9 -30 25 -49 35 -20 10
-61 35 -91 55 -30 21 -85 52 -122 70 -75 37 -116 64 -171 112 -20 18 -45 33
-55 33 -10 0 -27 7 -38 15 -10 8 -25 15 -33 15 -31 0 24 -136 79 -195 15 -16
36 -44 47 -61 10 -17 31 -46 46 -65 15 -19 44 -54 64 -79 47 -59 297 -295 348
-329 22 -14 64 -49 93 -77 l53 -50 -26 -12 c-43 -20 -110 -14 -207 19 -119 39
-135 49 -242 150 -102 96 -179 195 -251 323 -27 48 -65 111 -84 139 -18 29
-42 75 -53 102 -11 28 -28 59 -38 70 -10 11 -25 37 -34 59 -9 21 -27 52 -42
70 -14 17 -56 74 -92 126 -37 52 -70 97 -74 98 -5 2 -24 27 -42 55 -19 29 -59
75 -88 103 -45 43 -61 53 -101 58 l-49 6 5 -53 c5 -55 55 -200 87 -252 10 -16
28 -54 39 -83 12 -30 32 -68 46 -86 13 -17 29 -53 35 -80 6 -26 29 -78 51
-114 22 -37 48 -95 59 -128 28 -91 86 -200 134 -253 43 -47 99 -145 88 -155
-10 -11 -39 -6 -51 7 -6 8 -29 19 -51 26 -51 15 -148 97 -230 196 -36 43 -81
97 -101 119 -39 45 -105 164 -133 239 -10 26 -29 61 -42 76 -13 16 -24 33 -24
39 0 27 -53 188 -70 212 -10 15 -26 58 -36 96 -9 38 -30 93 -46 122 -15 29
-38 75 -48 103 -11 28 -33 67 -49 87 -16 20 -33 51 -38 67 -15 45 -93 151
-172 233 -39 40 -80 89 -91 108 -26 41 -42 43 -65 8 -26 -40 -16 -119 22 -180
17 -27 39 -74 48 -104 10 -30 52 -120 93 -200 77 -152 127 -280 161 -416 12
-45 32 -106 46 -135 13 -30 30 -78 36 -107 6 -29 21 -65 35 -81 13 -16 33 -50
44 -77 11 -27 31 -58 44 -69 17 -14 25 -33 28 -64 4 -53 -11 -62 -34 -21 -11
20 -25 30 -41 30 -13 0 -39 14 -58 31 -19 17 -44 35 -56 40 -12 4 -30 21 -40
36 -10 15 -48 59 -85 97 -66 67 -131 168 -144 223 -4 16 -28 73 -55 128 -89
187 -139 317 -160 418 -11 55 -24 107 -28 116 -5 9 -16 50 -25 91 -10 41 -30
120 -46 175 -17 55 -38 150 -49 210 -10 61 -25 123 -33 139 l-14 28 -27 -41
c-15 -22 -31 -59 -36 -83 -17 -80 -24 -281 -12 -359 28 -177 45 -269 62 -334
33 -129 60 -294 53 -330 -9 -50 -29 -63 -57 -38 -12 12 -36 28 -53 36 -46 24
-116 112 -164 207 -66 132 -125 278 -148 361 -12 42 -30 92 -41 110 -11 19
-27 64 -36 101 -8 36 -28 95 -43 130 -16 34 -32 77 -36 93 -12 48 -48 125 -58
125 -21 0 -57 -54 -63 -95 -8 -50 23 -196 62 -295 31 -79 59 -322 43 -380 -17
-63 -31 -74 -83 -66 -31 5 -50 14 -60 29 -8 12 -52 60 -97 107 -45 47 -91 104
-101 127 -10 23 -26 46 -37 52 -11 6 -27 30 -37 53 -9 24 -29 57 -45 73 -16
17 -40 50 -53 74 -34 60 -232 278 -271 298 -55 28 -160 107 -207 155 -59 61
-84 128 -104 283 -8 66 -18 140 -22 165 -5 25 -6 126 -3 225 5 166 8 184 31
235 l26 55 16 -55 c9 -30 26 -100 37 -154 12 -55 26 -108 31 -118 6 -10 26
-62 45 -114 40 -112 80 -167 216 -304 53 -52 108 -115 123 -140 15 -25 38 -56
51 -70 12 -14 28 -47 34 -73 6 -27 21 -70 34 -95 12 -26 31 -85 40 -132 22
-110 35 -149 57 -180 10 -14 27 -50 39 -81 18 -50 25 -58 71 -79 68 -32 83
-22 87 55 2 46 -2 67 -23 107 -15 29 -31 85 -39 136 -16 103 -69 304 -97 368
-10 25 -19 56 -19 68 0 39 -135 294 -242 457 -31 47 -64 103 -75 125 -10 21
-31 59 -45 84 -14 25 -33 72 -43 105 -9 33 -27 83 -41 112 -17 36 -27 84 -34
155 -6 57 -16 144 -22 193 -7 50 -13 144 -14 210 -1 66 -6 136 -13 155 -19 59
-13 90 35 176 46 86 49 88 103 78 29 -6 30 -8 17 -23 -18 -19 -18 -23 -17
-290 1 -113 6 -223 12 -245 11 -40 75 -116 98 -116 21 0 61 52 61 79 1 67 32
354 45 421 8 41 15 100 15 130 0 30 7 84 15 120 8 36 14 86 15 111 0 60 22
121 67 186 35 52 38 53 84 53 l48 0 16 -52 c8 -28 15 -70 15 -92 0 -57 17
-113 50 -166 15 -25 35 -66 45 -92 24 -64 36 -73 66 -49 22 18 24 28 29 138 5
106 10 129 44 220 23 61 51 114 68 132 15 16 65 43 111 62 45 17 109 44 142
59 33 15 96 37 140 48 44 12 105 31 135 41 64 23 163 27 241 9z m259 -1389 c0
-11 -4 -17 -10 -14 -5 3 -10 13 -10 21 0 8 5 14 10 14 6 0 10 -9 10 -21z
m5869 -239 c10 -5 21 -22 24 -38 9 -44 31 -60 94 -68 52 -6 63 -12 109 -58 63
-62 75 -99 83 -258 4 -72 11 -122 18 -129 10 -10 23 -10 60 2 37 12 56 26 85
64 42 56 43 71 9 175 -10 30 -23 74 -28 97 l-10 42 34 12 c34 11 36 10 85 -37
28 -27 62 -74 77 -104 14 -30 36 -71 49 -91 50 -81 -9 -177 -167 -274 -51 -32
-98 -52 -144 -61 -37 -8 -96 -25 -130 -39 -34 -13 -100 -31 -147 -41 -47 -9
-121 -29 -165 -46 -76 -27 -243 -58 -400 -73 -38 -4 -97 -13 -130 -21 -33 -7
-89 -14 -125 -14 -36 0 -99 -5 -140 -11 -76 -11 -937 -14 -970 -4 -9 3 -93 7
-186 9 -108 3 -189 10 -224 20 -72 19 -215 43 -310 50 -109 9 -215 26 -295 47
-38 10 -137 27 -220 39 -82 11 -184 32 -225 45 -41 14 -124 32 -185 40 -60 9
-159 30 -220 47 -60 17 -139 35 -174 40 -36 5 -81 16 -100 24 -52 22 -216 64
-251 64 -16 0 -104 28 -195 61 -146 55 -165 64 -165 84 0 32 -20 45 -87 55
-32 5 -94 21 -138 35 -44 14 -118 30 -165 36 -47 6 -94 14 -104 18 -38 14 296
35 416 26 62 -5 127 -8 143 -7 17 1 186 3 376 6 l347 5 58 32 c59 31 60 32
234 36 96 2 218 0 270 -5 93 -9 94 -9 29 -11 -37 0 -102 -7 -145 -15 -44 -8
-119 -20 -169 -26 -49 -6 -97 -17 -105 -24 -22 -19 -71 -25 -302 -36 -222 -11
-285 -19 -345 -46 l-38 -17 79 -13 c69 -11 83 -17 117 -50 l39 -38 192 -4
c114 -3 219 0 258 6 36 6 105 18 155 27 49 8 137 19 195 25 172 16 272 31 320
45 25 8 109 26 187 40 78 14 154 30 168 35 14 5 63 19 108 31 45 11 89 26 97
34 8 7 44 23 80 35 36 13 74 31 85 40 28 24 69 12 73 -20 2 -14 12 -34 21 -45
34 -38 32 -61 -6 -79 -21 -10 -38 -27 -44 -45 -12 -35 -40 -48 -142 -65 -43
-8 -88 -23 -105 -35 -20 -14 -57 -25 -109 -31 -144 -18 -243 -45 -243 -67 0
-10 52 -83 59 -83 3 0 38 -5 76 -10 156 -20 465 27 605 91 170 78 305 152 354
193 28 24 67 51 86 61 19 9 44 25 55 35 11 10 37 26 58 37 l38 19 -30 39 c-17
22 -31 43 -31 47 0 15 66 24 106 15 39 -9 43 -13 53 -54 9 -33 20 -49 45 -64
40 -23 56 -56 56 -112 0 -36 -8 -53 -49 -107 -27 -36 -66 -78 -87 -95 -40 -30
-212 -100 -273 -111 -65 -11 -171 -55 -186 -78 -8 -12 -17 -36 -21 -53 -5 -28
-3 -31 33 -45 32 -12 79 -14 293 -8 236 7 262 10 345 35 50 14 110 35 134 46
65 30 144 103 221 206 l69 91 11 109 c6 59 13 128 17 151 3 26 1 48 -6 55 -24
24 -12 38 31 35 41 -3 42 -4 54 -52 14 -56 52 -100 110 -127 l40 -19 80 80
c44 44 85 80 90 79 5 0 29 -30 54 -67 43 -65 45 -69 48 -158 3 -68 0 -100 -13
-130 -9 -21 -27 -81 -41 -132 -26 -101 -24 -118 19 -141 23 -12 29 -11 69 18
46 33 87 93 135 196 26 55 28 70 29 180 0 66 6 153 12 193 13 81 7 106 -30
118 -31 9 -49 24 -42 35 7 12 81 11 103 -1z m-329 -20 c0 -11 -4 -20 -10 -20
-5 0 -14 9 -20 20 -9 17 -8 20 10 20 13 0 20 -7 20 -20z m-1702 -77 c-3 -14
-11 -17 -43 -14 -54 4 -67 14 -30 22 57 13 77 10 73 -8z m-2188 -1359 c0 -2
-9 -4 -20 -4 -11 0 -20 4 -20 9 0 5 9 7 20 4 11 -3 20 -7 20 -9z m4085 -228
c17 -11 40 -33 53 -47 12 -15 39 -31 59 -36 29 -7 41 -17 60 -53 13 -25 30
-48 38 -52 25 -14 48 -93 41 -140 -12 -77 -120 -165 -256 -209 -104 -33 -199
-68 -231 -85 -18 -9 -67 -21 -108 -26 -42 -5 -123 -20 -181 -33 -180 -40 -362
-43 -290 -5 11 6 32 30 46 53 15 23 39 56 54 72 60 67 60 174 -1 261 -19 27
-62 81 -97 120 -68 78 -70 92 -19 122 45 26 123 40 257 46 63 3 167 13 230 22
204 28 224 30 270 21 25 -5 59 -19 75 -31z m-4880 -2146 c3 -5 1 -10 -4 -10
-6 0 -11 5 -11 10 0 6 2 10 4 10 3 0 8 -4 11 -10z"/>
<path d="M5015 9410 c-66 -16 -144 -32 -174 -36 -37 -4 -63 -15 -85 -34 -17
-15 -49 -33 -70 -40 -42 -14 -155 -112 -218 -190 -20 -25 -54 -85 -76 -133
-39 -84 -40 -89 -31 -146 5 -32 8 -101 7 -152 -1 -79 3 -107 25 -174 23 -68
99 -203 145 -255 7 -8 21 -27 33 -42 11 -15 40 -36 65 -47 24 -11 59 -36 77
-55 20 -21 50 -39 76 -46 24 -6 54 -18 66 -26 12 -8 62 -23 111 -34 85 -19 94
-19 209 -4 66 9 131 22 145 29 14 8 45 23 70 35 25 12 56 31 70 44 14 13 54
39 90 59 88 49 118 83 186 216 l59 114 3 205 c4 230 5 225 -76 390 -50 101
-104 157 -192 202 -25 12 -63 36 -85 51 -30 22 -64 33 -135 45 -52 9 -112 25
-132 35 -21 11 -39 19 -40 18 -2 -1 -57 -14 -123 -29z m-26 -226 c15 -19 21
-41 21 -75 0 -53 -15 -69 -67 -69 -46 0 -71 -11 -87 -35 -14 -21 -14 -29 0
-74 17 -58 39 -77 101 -87 82 -13 83 -19 20 -125 -31 -52 -70 -108 -87 -124
-17 -16 -37 -50 -45 -78 -22 -75 2 -114 85 -136 49 -13 90 -58 90 -100 0 -46
17 -61 68 -61 55 0 72 12 72 53 0 48 46 114 95 136 24 11 48 29 55 40 24 45
-20 104 -92 126 -97 29 -100 46 -18 135 41 45 75 96 110 169 l50 104 -24 41
c-21 36 -33 45 -83 60 -96 30 -117 62 -62 95 36 22 100 18 165 -10 49 -20 133
-83 153 -113 8 -11 25 -33 38 -47 14 -16 33 -62 49 -120 28 -102 28 -112 0
-307 l-17 -113 -69 -72 c-39 -39 -72 -79 -75 -88 -6 -19 -26 -29 -125 -65 -64
-24 -94 -28 -202 -32 l-128 -3 -95 45 c-52 25 -95 50 -95 55 0 6 -19 21 -42
35 -44 26 -105 102 -138 173 -29 59 -46 274 -26 329 7 22 17 58 21 82 4 23 17
55 29 70 13 15 31 44 41 64 16 36 33 49 140 109 34 19 74 30 142 38 6 0 21
-11 32 -25z"/>
<path d="M7085 7658 c-16 -7 -91 -129 -82 -133 1 0 19 -15 40 -33 32 -28 45
-32 93 -32 45 0 59 4 79 25 14 13 25 34 25 47 0 38 -19 94 -38 110 -21 19 -90
28 -117 16z"/>
<path d="M2743 7098 c5 -15 46 -13 61 2 7 7 -3 10 -28 10 -26 0 -36 -4 -33
-12z"/>
<path d="M2331 6536 c-1 -26 2 -37 9 -30 6 6 6 21 1 39 -9 30 -9 30 -10 -9z"/>
<path d="M2405 5527 c-9 -34 2 -80 18 -74 18 5 20 59 3 82 -14 19 -15 19 -21
-8z"/>
<path d="M1293 6693 c-26 -10 -12 -23 25 -23 35 1 36 2 18 15 -21 16 -24 16
-43 8z"/>
<path d="M1214 6609 c-3 -6 -1 -16 5 -22 8 -8 11 -5 11 11 0 24 -5 28 -16 11z"/>
<path d="M700 6104 c-10 -11 -11 -20 -4 -32 16 -24 31 -25 43 -4 8 15 6 23 -8
36 -17 15 -19 15 -31 0z"/>
<path d="M776 6011 c-9 -15 23 -36 36 -23 5 5 7 15 4 21 -9 13 -33 14 -40 2z"/>
<path d="M15 5421 c-7 -23 3 -51 19 -51 6 1 26 9 45 19 l35 19 -32 16 c-41 21
-59 20 -67 -3z"/>
<path d="M233 5280 c-53 -49 -49 -70 12 -70 24 0 47 5 50 10 7 12 -5 100 -14
100 -3 0 -25 -18 -48 -40z"/>
<path d="M0 1237 l0 -144 42 -7 c24 -4 77 -17 118 -30 41 -13 109 -32 150 -41
41 -9 90 -26 109 -36 19 -11 59 -26 89 -34 66 -17 78 -25 201 -126 122 -100
262 -236 326 -318 28 -35 68 -86 90 -112 73 -86 119 -170 142 -259 12 -47 22
-95 22 -107 1 -22 4 -23 101 -23 114 0 114 -1 85 93 -8 26 -22 105 -31 175 -9
70 -26 152 -37 182 -10 30 -30 86 -43 125 -14 38 -33 78 -44 90 -10 11 -32 52
-47 90 -28 67 -109 186 -138 202 -7 5 -43 36 -79 70 -37 35 -92 76 -128 93
-35 17 -115 58 -178 91 -73 38 -144 67 -195 79 -44 11 -103 28 -132 39 -53 21
-155 35 -325 46 l-98 6 0 -144z"/>
<path d="M0 621 l0 -130 193 -3 c177 -3 293 3 338 17 23 8 34 42 19 59 -6 8
-23 17 -38 21 -15 3 -50 21 -79 40 -35 23 -88 44 -165 64 -62 16 -138 37 -168
45 -105 30 -100 35 -100 -113z"/>
<path d="M7775 640 c-3 -5 1 -10 10 -10 9 0 13 5 10 10 -3 6 -8 10 -10 10 -2
0 -7 -4 -10 -10z"/>
<path d="M8028 633 c7 -3 16 -2 19 1 4 3 -2 6 -13 5 -11 0 -14 -3 -6 -6z"/>
<path d="M8030 254 c0 -27 4 -43 10 -39 6 3 10 24 10 46 0 21 -4 39 -10 39 -5
0 -10 -21 -10 -46z"/>
<path d="M510 160 c-164 -8 -435 -33 -484 -46 -24 -6 -26 -11 -26 -60 l0 -54
475 0 c470 0 475 0 475 20 0 11 18 40 40 64 l40 44 -42 17 c-53 21 -236 27
-478 15z"/>
<path d="M1683 50 c-13 -5 -23 -18 -23 -30 0 -17 6 -20 46 -20 44 0 45 1 42
27 -3 31 -27 39 -65 23z"/>
</g>
</svg>
